<svg xmlns="http://www.w3.org/2000/svg" viewBox="0 0 100 100">
    <defs>
        <!-- Gradients for fruits -->
        <radialGradient id="strawberryGrad" cx="0.3" cy="0.3">
            <stop offset="0%" style="stop-color:#F06292"/>
            <stop offset="100%" style="stop-color:#E91E63"/>
        </radialGradient>

        <radialGradient id="orangeGrad" cx="0.3" cy="0.3">
            <stop offset="0%" style="stop-color:#FFB74D"/>
            <stop offset="100%" style="stop-color:#FF9800"/>
        </radialGradient>

        <radialGradient id="appleGrad" cx="0.3" cy="0.3">
            <stop offset="0%" style="stop-color:#81C784"/>
            <stop offset="100%" style="stop-color:#4CAF50"/>
        </radialGradient>

        <radialGradient id="grapeGrad" cx="0.3" cy="0.3">
            <stop offset="0%" style="stop-color:#BA68C8"/>
            <stop offset="100%" style="stop-color:#9C27B0"/>
        </radialGradient>
    </defs>

    <!-- Top Left: Strawberry -->
    <circle cx="30" cy="30" r="12" fill="url(#strawberryGrad)" stroke="#C2185B" stroke-width="1"/>
    <circle cx="28" cy="28" r="0.8" fill="#FFEB3B" opacity="0.8"/>
    <circle cx="32" cy="27" r="0.8" fill="#FFEB3B" opacity="0.8"/>
    <circle cx="30" cy="32" r="0.8" fill="#FFEB3B" opacity="0.8"/>
    <!-- Strawberry eyes -->
    <circle cx="28" cy="29" r="1.3" fill="white"/>
    <circle cx="32" cy="29" r="1.3" fill="white"/>
    <circle cx="28" cy="29" r="0.7" fill="black"/>
    <circle cx="32" cy="29" r="0.7" fill="black"/>
    <!-- Strawberry smile -->
    <path d="M27,32 Q30,34 33,32" stroke="black" stroke-width="0.8" fill="none"/>

    <!-- Top Right: Orange -->
    <circle cx="70" cy="30" r="17" fill="url(#orangeGrad)" stroke="#E65100" stroke-width="1"/>
    <circle cx="68" cy="28" r="0.8" fill="#FF7043" opacity="0.6"/>
    <circle cx="72" cy="27" r="0.8" fill="#FF7043" opacity="0.6"/>
    <circle cx="70" cy="32" r="0.8" fill="#FF7043" opacity="0.6"/>
    <!-- Orange eyes -->
    <circle cx="68" cy="29" r="1.3" fill="white"/>
    <circle cx="72" cy="29" r="1.3" fill="white"/>
    <circle cx="68" cy="29" r="0.7" fill="black"/>
    <circle cx="72" cy="29" r="0.7" fill="black"/>
    <!-- Orange smile -->
    <path d="M67,32 Q70,34 73,32" stroke="black" stroke-width="0.8" fill="none"/>

    <!-- Bottom Left: Apple -->
    <circle cx="30" cy="70" r="14" fill="url(#appleGrad)" stroke="#2E7D32" stroke-width="1"/>
    <!-- Apple stem -->
    <ellipse cx="30" cy="61" rx="1.8" ry="1" fill="#795548"/>
    <ellipse cx="31" cy="59" rx="1" ry="1.8" fill="#4CAF50"/>
    <!-- Apple highlights -->
    <circle cx="27" cy="68" r="1" fill="#C8E6C9" opacity="0.8"/>
    <circle cx="33" cy="67" r="1" fill="#C8E6C9" opacity="0.8"/>
    <circle cx="30" cy="73" r="1" fill="#C8E6C9" opacity="0.8"/>
    <!-- Apple eyes -->
    <circle cx="28" cy="69" r="1.3" fill="white"/>
    <circle cx="32" cy="69" r="1.3" fill="white"/>
    <circle cx="28" cy="69" r="0.7" fill="black"/>
    <circle cx="32" cy="69" r="0.7" fill="black"/>
    <circle cx="28.3" cy="68.7" r="0.3" fill="white"/>
    <circle cx="32.3" cy="68.7" r="0.3" fill="white"/>
    <!-- Apple smile -->
    <path d="M27,72 Q30,74 33,72" stroke="black" stroke-width="0.8" fill="none"/>

    <!-- Bottom Right: Grape -->
    <circle cx="70" cy="70" r="11" fill="url(#grapeGrad)" stroke="#6A1B9A" stroke-width="1"/>
    <!-- Grape spots -->
    <circle cx="68" cy="68" r="0.8" fill="#7B1FA2" opacity="0.6"/>
    <circle cx="72" cy="67" r="0.8" fill="#7B1FA2" opacity="0.6"/>
    <circle cx="70" cy="72" r="0.8" fill="#7B1FA2" opacity="0.6"/>
    <circle cx="66" cy="71" r="0.6" fill="#7B1FA2" opacity="0.6"/>
    <circle cx="74" cy="70" r="0.6" fill="#7B1FA2" opacity="0.6"/>
    <!-- Grape eyes -->
    <circle cx="68" cy="69" r="1.3" fill="white"/>
    <circle cx="72" cy="69" r="1.3" fill="white"/>
    <circle cx="68" cy="69" r="0.7" fill="black"/>
    <circle cx="72" cy="69" r="0.7" fill="black"/>
    <circle cx="68.3" cy="68.7" r="0.3" fill="white"/>
    <circle cx="72.3" cy="68.7" r="0.3" fill="white"/>
    <!-- Grape smile -->
    <path d="M67,72 Q70,74 73,72" stroke="black" stroke-width="0.8" fill="none"/>
</svg>