<?xml version="1.0" standalone="no"?>
<!DOCTYPE svg PUBLIC "-//W3C//DTD SVG 20010904//EN"
        "http://www.w3.org/TR/2001/REC-SVG-20010904/DTD/svg10.dtd">
<svg version="1.0" xmlns="http://www.w3.org/2000/svg"
     width="816.000000pt" height="816.000000pt" viewBox="0 0 816.000000 816.000000"
     preserveAspectRatio="xMidYMid meet">

    <g transform="translate(0.000000,816.000000) scale(0.100000,-0.100000)"
       stroke="none">
        <!-- Linke Frucht in Orange -->
        <path d="M2119 6000 c-98 -9 -264 -47 -390 -90 -196 -66 -438 -207 -629 -368
-252 -212 -463 -544 -554 -869 -59 -212 -71 -302 -70 -538 1 -184 4 -237 22
-324 85 -413 298 -787 598 -1051 485 -426 1116 -578 1718 -414 157 42 248 78
386 151 268 141 424 269 607 498 100 126 136 180 207 324 167 332 228 733 170
1111 -50 327 -154 572 -357 840 -240 317 -623 568 -1037 679 -186 50 -465 71
-671 51z m-521 -418 c25 -32 11 -63 -62 -139 -43 -46 -69 -53 -98 -26 -34 31
-23 69 41 134 50 51 63 60 82 54 13 -4 30 -14 37 -23z m-420 -368 c37 -26 29
-67 -25 -130 -38 -44 -53 -54 -78 -54 -42 0 -70 30 -61 65 8 31 106 135 127
135 8 0 25 -7 37 -16z m-240 -416 c24 -24 14 -73 -25 -119 -44 -52 -51 -57
-81 -65 -30 -8 -62 21 -62 56 0 27 67 123 93 133 23 10 63 7 75 -5z m989 -229
c80 -30 133 -125 133 -239 -1 -150 -73 -240 -193 -240 -72 0 -124 37 -162 113
-94 194 50 431 222 366z m1316 -3 c43 -17 90 -73 112 -130 26 -68 17 -188 -18
-249 -41 -70 -79 -92 -158 -92 -56 0 -71 4 -101 27 -55 42 -88 117 -88 200 0
181 122 299 253 244z m-1136 -786 c45 -70 67 -96 109 -130 126 -101 244 -134
389 -107 59 11 102 26 138 48 79 48 152 114 172 155 33 71 78 93 117 57 28
-25 22 -64 -20 -129 -83 -127 -226 -228 -359 -254 -100 -20 -263 -8 -348 24
-187 71 -361 289 -289 361 26 26 65 15 91 -25z" fill="#FF8C00"/>

        <!-- Details der rechten Frucht -->
        <path d="M6147 6327 c-32 -50 -81 -155 -119 -261 -22 -61 -46 -117 -53 -125
-11 -12 -29 -4 -117 46 -146 86 -233 128 -312 151 l-69 21 6 -44 c16 -114 75
-231 156 -310 23 -21 41 -44 41 -50 0 -6 -42 -24 -92 -39 -404 -120 -673 -296
-909 -591 -156 -195 -267 -450 -315 -725 -25 -138 -25 -413 0 -550 67 -375
236 -693 508 -956 423 -408 1062 -568 1620 -404 475 140 834 435 1057 870 55
106 130 320 158 450 28 133 26 468 -5 611 -33 155 -75 278 -141 414 -172 350
-418 599 -766 776 -77 39 -144 73 -148 76 -5 3 23 37 61 77 79 82 115 132 137
196 23 63 44 190 33 190 -6 0 -50 -13 -99 -30 -100 -33 -172 -68 -307 -147
-52 -31 -98 -51 -102 -47 -5 5 -29 62 -54 127 -43 111 -127 281 -146 292 -4 3
-14 -5 -23 -18z m-777 -1767 c77 -39 127 -153 115 -260 -18 -158 -153 -252
-273 -191 -63 32 -105 99 -116 186 -13 99 43 228 117 267 43 23 109 22 157 -2z
m1295 -9 c50 -23 68 -43 96 -106 51 -115 16 -274 -74 -333 -32 -21 -52 -27
-98 -27 -49 0 -63 4 -96 31 -117 94 -131 293 -29 396 59 58 129 72 201 39z
m-1180 -727 c9 -4 27 -28 40 -53 38 -76 134 -164 216 -200 118 -52 287 -49
398 7 65 32 171 134 200 191 38 74 111 61 111 -19 0 -54 -82 -167 -168 -230
-93 -69 -177 -101 -282 -109 -141 -10 -232 4 -327 51 -176 86 -311 278 -246
350 17 19 31 22 58 12z" fill="#9370DB"/>

        <!-- Kleine Details -->
        <path d="M4281 3784 c0 -11 3 -14 6 -6 3 7 2 16 -1 19 -3 4 -6 -2 -5 -13z" fill="#000000"/>
    </g>
</svg>