<svg xmlns="http://www.w3.org/2000/svg" viewBox="0 0 64 64">
    <defs>
        <radialGradient id="blueberryGrad" cx="0.3" cy="0.3">
            <stop offset="0%" style="stop-color:#BA68C8"/>
            <stop offset="100%" style="stop-color:#9C27B0"/>
        </radialGradient>
        <radialGradient id="mouthGrad" cx="0.5" cy="0.3">
            <stop offset="0%" style="stop-color:#2E2E2E"/>
            <stop offset="100%" style="stop-color:#000000"/>
        </radialGradient>
    </defs>
    <circle cx="32" cy="32" r="30" fill="url(#blueberryGrad)" stroke="#6A1B9A" stroke-width="2"/>
    <circle cx="20" cy="20" r="1.5" fill="#7B1FA2" opacity="0.6"/>
    <circle cx="44" cy="18" r="1.5" fill="#7B1FA2" opacity="0.6"/>
    <circle cx="18" cy="40" r="1.5" fill="#7B1FA2" opacity="0.6"/>
    <circle cx="46" cy="42" r="1.5" fill="#7B1FA2" opacity="0.6"/>
    <circle cx="32" cy="48" r="1.5" fill="#7B1FA2" opacity="0.6"/>
    <g id="openEyes">
        <ellipse cx="24" cy="26" rx="6" ry="6" fill="white"/>
        <ellipse cx="40" cy="26" rx="6" ry="6" fill="white"/>
        <circle cx="24" cy="26" r="2.5" fill="black"/>
        <circle cx="40" cy="26" r="2.5" fill="black"/>
        <circle cx="25" cy="25" r="1" fill="white"/>
        <circle cx="41" cy="25" r="1" fill="white"/>
        <path d="M26,38 Q32,44 38,38" stroke="black" stroke-width="2.5" fill="none" stroke-linecap="round"/>
        <animate
                attributeName="opacity"
                values="1; 1; 0; 1; 1"
                dur="10s"
                repeatCount="indefinite"
                calcMode="discrete"/>
    </g>
    <g id="closedEyes">
        <ellipse cx="24" cy="26" rx="7" ry="7" fill="white"/>
        <ellipse cx="40" cy="26" rx="7" ry="7" fill="white"/>
        <circle cx="24" cy="26" r="2.5" fill="black"/>
        <circle cx="40" cy="26" r="2.5" fill="black"/>
        <circle cx="25" cy="25" r="1" fill="white"/>
        <circle cx="41" cy="25" r="1" fill="white"/>
        <ellipse cx="32" cy="42" rx="10" ry="8" fill="url(#mouthGrad)" stroke="#000" stroke-width="1.5"/>
        <ellipse cx="32" cy="45" rx="6" ry="4" fill="#FF6B9D" opacity="0.8"/>
        <animate
                attributeName="opacity"
                values="0; 0; 1; 0; 0"
                dur="10s"
                repeatCount="indefinite"
                calcMode="discrete"/>
    </g>
    <ellipse cx="16" cy="32" rx="3" ry="2" fill="#8E24AA" opacity="0.4"/>
    <ellipse cx="48" cy="32" rx="3" ry="2" fill="#8E24AA" opacity="0.4"/>
</svg>