<svg xmlns="http://www.w3.org/2000/svg" viewBox="0 0 64 64">
    <defs>
        <radialGradient id="coconutGrad" cx="0.3" cy="0.3">
            <stop offset="0%" style="stop-color:#A1887F"/>
            <stop offset="100%" style="stop-color:#8D6E63"/>
        </radialGradient>
    </defs>
    <circle cx="32" cy="32" r="30" fill="url(#coconutGrad)" stroke="#5D4037" stroke-width="2"/>
    <path d="M20,16 Q32,20 44,16" stroke="#6D4C41" stroke-width="2" fill="none" opacity="0.6"/>
    <path d="M18,28 Q32,32 46,28" stroke="#6D4C41" stroke-width="2" fill="none" opacity="0.6"/>
    <path d="M18,36 Q32,40 46,36" stroke="#6D4C41" stroke-width="2" fill="none" opacity="0.6"/>
    <path d="M20,48 Q32,44 44,48" stroke="#6D4C41" stroke-width="2" fill="none" opacity="0.6"/>
    <circle cx="22" cy="22" r="1.5" fill="#5D4037" opacity="0.8"/>
    <circle cx="42" cy="20" r="1.5" fill="#5D4037" opacity="0.8"/>
    <circle cx="20" cy="42" r="1.5" fill="#5D4037" opacity="0.8"/>
    <circle cx="44" cy="44" r="1.5" fill="#5D4037" opacity="0.8"/>
    <ellipse cx="24" cy="26" rx="5" ry="5" fill="white"/>
    <ellipse cx="40" cy="26" rx="5" ry="5" fill="white"/>
    <circle cx="24" cy="26" r="2.5" fill="black"/>
    <circle cx="40" cy="26" r="2.5" fill="black"/>
    <circle cx="25" cy="25" r="1" fill="white"/>
    <circle cx="41" cy="25" r="1" fill="white"/>
    <path d="M26,38 Q32,44 38,38" stroke="black" stroke-width="2.5" fill="none" stroke-linecap="round"/>
    <ellipse cx="16" cy="32" rx="3" ry="2" fill="#D7CCC8" opacity="0.6"/>
    <ellipse cx="48" cy="32" rx="3" ry="2" fill="#D7CCC8" opacity="0.6"/>
    <circle cx="30" cy="18" r="1" fill="#3E2723" opacity="0.9"/>
    <circle cx="34" cy="18" r="1" fill="#3E2723" opacity="0.9"/>
    <circle cx="32" cy="16" r="1" fill="#3E2723" opacity="0.9"/>
</svg>