<svg xmlns="http://www.w3.org/2000/svg" viewBox="0 0 64 64">
    <defs>
        <radialGradient id="lemonGrad" cx="0.3" cy="0.3">
            <stop offset="0%" style="stop-color:#FFF176"/>
            <stop offset="100%" style="stop-color:#FFEB3B"/>
        </radialGradient>
    </defs>
    <circle cx="32" cy="32" r="30" fill="url(#lemonGrad)" stroke="#F57F17" stroke-width="2"/>
    <ellipse cx="22" cy="20" rx="2" ry="1" fill="#F9A825" opacity="0.5"/>
    <ellipse cx="42" cy="18" rx="2" ry="1" fill="#F9A825" opacity="0.5"/>
    <ellipse cx="18" cy="40" rx="2" ry="1" fill="#F9A825" opacity="0.5"/>
    <ellipse cx="46" cy="42" rx="2" ry="1" fill="#F9A825" opacity="0.5"/>
    <ellipse cx="32" cy="48" rx="2" ry="1" fill="#F9A825" opacity="0.5"/>
    <g id="openEyes">
        <ellipse cx="24" cy="26" rx="4" ry="5" fill="white"/>
        <ellipse cx="40" cy="26" rx="4" ry="5" fill="white"/>
        <circle cx="24" cy="26" r="2.5" fill="black"/>
        <circle cx="40" cy="26" r="2.5" fill="black"/>
        <circle cx="25" cy="25" r="1" fill="white"/>
        <circle cx="41" cy="25" r="1" fill="white"/>
        <animate
                attributeName="opacity"
                values="1; 1; 0; 1; 1"
                dur="3s"
                repeatCount="indefinite"
                calcMode="discrete"/>
    </g>
    <g id="closedEyes">
        <line x1="20" y1="26" x2="28" y2="26" stroke="black" stroke-width="2" stroke-linecap="round"/>
        <line x1="36" y1="26" x2="44" y2="26" stroke="black" stroke-width="2" stroke-linecap="round"/>
        <animate
                attributeName="opacity"
                values="0; 0; 1; 0; 0"
                dur="3s"
                repeatCount="indefinite"
                calcMode="discrete"/>
    </g>
    <path d="M26,38 Q32,44 38,38" stroke="black" stroke-width="2.5" fill="none" stroke-linecap="round"/>
    <ellipse cx="16" cy="32" rx="3" ry="2" fill="#FFC107" opacity="0.4"/>
    <ellipse cx="48" cy="32" rx="3" ry="2" fill="#FFC107" opacity="0.4"/>
</svg>