<svg xmlns="http://www.w3.org/2000/svg" viewBox="0 0 64 64">
    <defs>
        <radialGradient id="watermelonGrad" cx="0.3" cy="0.3">
            <stop offset="0%" style="stop-color:#F8BBD0"/>
            <stop offset="100%" style="stop-color:#F48FB1"/>
        </radialGradient>
    </defs>
    <circle cx="32" cy="32" r="30" fill="url(#watermelonGrad)" stroke="#008e00" stroke-width="2"/>
    <circle cx="32" cy="32" r="26" fill="#F06292" opacity="0.8"/>
    <circle cx="22" cy="22" r="2" fill="#1B5E20" opacity="0.9"/>
    <circle cx="42" cy="20" r="2" fill="#1B5E20" opacity="0.9"/>
    <circle cx="20" cy="42" r="2" fill="#1B5E20" opacity="0.9"/>
    <circle cx="44" cy="44" r="2" fill="#1B5E20" opacity="0.9"/>
    <circle cx="32" cy="18" r="1.5" fill="#1B5E20" opacity="0.9"/>
    <circle cx="18" cy="32" r="1.5" fill="#1B5E20" opacity="0.9"/>
    <circle cx="46" cy="32" r="1.5" fill="#1B5E20" opacity="0.9"/>
    <circle cx="32" cy="46" r="1.5" fill="#1B5E20" opacity="0.9"/>
    <circle cx="28" cy="36" r="1" fill="#1B5E20" opacity="0.8"/>
    <circle cx="36" cy="28" r="1" fill="#1B5E20" opacity="0.8"/>
    <ellipse cx="24" cy="26" rx="5" ry="5" fill="white"/>
    <ellipse cx="40" cy="26" rx="5" ry="5" fill="white"/>
    <circle cx="24" cy="26" r="2.5" fill="black"/>
    <circle cx="40" cy="26" r="2.5" fill="black"/>
    <circle cx="25" cy="25" r="1" fill="white"/>
    <circle cx="41" cy="25" r="1" fill="white"/>
    <path d="M26,38 Q32,44 38,38" stroke="black" stroke-width="2.5" fill="none" stroke-linecap="round"/>
    <ellipse cx="16" cy="32" rx="3" ry="2" fill="#F8BBD0" opacity="0.6"/>
    <ellipse cx="48" cy="32" rx="3" ry="2" fill="#F8BBD0" opacity="0.6"/>
</svg>