<svg xmlns="http://www.w3.org/2000/svg" viewBox="0 0 64 64">
    <defs>
        <radialGradient id="orangeGrad" cx="0.3" cy="0.3">
            <stop offset="0%" style="stop-color:#FFB74D"/>
            <stop offset="100%" style="stop-color:#FF9800"/>
        </radialGradient>
    </defs>
    <circle cx="32" cy="32" r="30" fill="url(#orangeGrad)" stroke="#E65100" stroke-width="2"/>
    <circle cx="20" cy="20" r="1.5" fill="#FF7043" opacity="0.6"/>
    <circle cx="44" cy="18" r="1.5" fill="#FF7043" opacity="0.6"/>
    <circle cx="18" cy="40" r="1.5" fill="#FF7043" opacity="0.6"/>
    <circle cx="46" cy="42" r="1.5" fill="#FF7043" opacity="0.6"/>
    <circle cx="32" cy="48" r="1.5" fill="#FF7043" opacity="0.6"/>
    <g id="openEyes">
        <ellipse cx="24" cy="26" rx="5" ry="5" fill="white"/>
        <ellipse cx="40" cy="26" rx="5" ry="5" fill="white"/>
        <circle cx="24" cy="26" r="2.5" fill="black"/>
        <circle cx="40" cy="26" r="2.5" fill="black"/>
        <circle cx="25" cy="25" r="1" fill="white"/>
        <circle cx="41" cy="25" r="1" fill="white"/>
        <animate
                attributeName="opacity"
                values="1; 1; 0; 1; 1"
                dur="6s"
                repeatCount="indefinite"
                calcMode="discrete"/>
    </g>
    <g id="closedEyes">
        <ellipse cx="24" cy="26" rx="4" ry="5" fill="white"/>
        <circle cx="24" cy="26" r="2.5" fill="black"/>
        <circle cx="25" cy="25" r="1" fill="white"/>
        <line x1="36" y1="26" x2="44" y2="26" stroke="black" stroke-width="2" stroke-linecap="round"/>
        <animate
                attributeName="opacity"
                values="0; 0; 1; 0; 0"
                dur="6s"
                repeatCount="indefinite"
                calcMode="discrete"/>
    </g>
    <path d="M26,38 Q32,44 38,38" stroke="black" stroke-width="2.5" fill="none" stroke-linecap="round"/>
    <ellipse cx="16" cy="32" rx="3" ry="2" fill="#FF5722" opacity="0.4"/>
    <ellipse cx="48" cy="32" rx="3" ry="2" fill="#FF5722" opacity="0.4"/>
</svg>