<svg xmlns="http://www.w3.org/2000/svg" viewBox="0 0 64 64">
    <defs>
        <radialGradient id="strawberryGrad" cx="0.3" cy="0.3">
            <stop offset="0%" style="stop-color:#F06292"/>
            <stop offset="100%" style="stop-color:#E91E63"/>
        </radialGradient>
    </defs>
    <circle cx="32" cy="32" r="30" fill="url(#strawberryGrad)" stroke="#C2185B" stroke-width="2"/>
    <circle cx="22" cy="22" r="1" fill="#FFEB3B" opacity="0.8"/>
    <circle cx="40" cy="20" r="1" fill="#FFEB3B" opacity="0.8"/>
    <circle cx="20" cy="38" r="1" fill="#FFEB3B" opacity="0.8"/>
    <circle cx="44" cy="40" r="1" fill="#FFEB3B" opacity="0.8"/>
    <circle cx="32" cy="46" r="1" fill="#FFEB3B" opacity="0.8"/>
    <circle cx="28" cy="16" r="1" fill="#FFEB3B" opacity="0.8"/>
    <circle cx="36" cy="48" r="1" fill="#FFEB3B" opacity="0.8"/>
    <g id="openEyes">
        <ellipse cx="24" cy="26" rx="6" ry="6" fill="white"/>
        <ellipse cx="40" cy="26" rx="6" ry="6" fill="white"/>
        <circle cx="24" cy="26" r="2.5" fill="black"/>
        <circle cx="40" cy="26" r="2.5" fill="black"/>
        <circle cx="25" cy="25" r="1" fill="white"/>
        <circle cx="41" cy="25" r="1" fill="white"/>
        <animate
                attributeName="opacity"
                values="1; 1; 0; 1; 1"
                dur="10s"
                repeatCount="indefinite"
                calcMode="discrete"/>
    </g>
    <g id="closedEyes">
        <ellipse cx="24" cy="26" rx="9" ry="9" fill="white" stroke="#ddd" stroke-width="1"/>
        <ellipse cx="40" cy="26" rx="9" ry="9" fill="white" stroke="#ddd" stroke-width="1"/>
        <circle cx="24" cy="26" r="3" fill="black"/>
        <circle cx="40" cy="26" r="3" fill="black"/>
        <circle cx="25.5" cy="24.5" r="1.5" fill="white"/>
        <circle cx="41.5" cy="24.5" r="1.5" fill="white"/>
        <animate
                attributeName="opacity"
                values="0; 0; 1; 0; 0"
                dur="10s"
                repeatCount="indefinite"
                calcMode="discrete"/>
    </g>
    <path d="M26,38 Q32,44 38,38" stroke="black" stroke-width="2.5" fill="none" stroke-linecap="round"/>
    <ellipse cx="16" cy="32" rx="3" ry="2" fill="#F8BBD9" opacity="0.6"/>
    <ellipse cx="48" cy="32" rx="3" ry="2" fill="#F8BBD9" opacity="0.6"/>
    <path d="M30,8 L34,8 L36,12 L28,12 Z" fill="#4CAF50"/>
</svg>